<?xml version="1.0" standalone="no"?>
<!DOCTYPE svg PUBLIC "-//W3C//DTD SVG 20010904//EN"
 "http://www.w3.org/TR/2001/REC-SVG-20010904/DTD/svg10.dtd">
<svg version="1.0" xmlns="http://www.w3.org/2000/svg"
 width="160.000000pt" height="156.000000pt" viewBox="0 0 160.000000 156.000000"
 preserveAspectRatio="xMidYMid meet">

<g transform="translate(0.000000,156.000000) scale(0.100000,-0.100000)"
fill="#000000" stroke="none">
<path d="M674 1455 c-115 -25 -308 -125 -284 -149 8 -8 15 -7 28 2 108 76 235
121 367 129 103 6 195 -10 299 -52 98 -39 117 -26 26 18 -130 64 -294 83 -436
52z"/>
<path d="M310 770 l0 -560 45 0 45 0 2 465 3 465 340 -262 c187 -143 395 -303
463 -355 l122 -94 0 451 0 451 -42 -3 -43 -3 -3 -358 -2 -358 -40 32 -40 32 0
329 0 328 -45 0 -45 0 0 -290 c0 -159 -3 -290 -6 -290 -3 0 -174 130 -380 290
l-374 289 0 -559z"/>
<path d="M229 1143 c-131 -212 -144 -467 -33 -683 79 -156 106 -152 30 4 -102
209 -101 413 5 623 50 100 49 138 -2 56z"/>
<path d="M1370 1183 c0 -12 15 -51 34 -85 59 -109 81 -197 81 -328 0 -132 -22
-221 -81 -327 -19 -34 -34 -72 -34 -84 0 -21 3 -19 26 15 73 107 124 271 124
396 0 127 -50 288 -124 397 -22 32 -26 34 -26 16z"/>
<path d="M480 595 l0 -385 45 0 45 0 0 290 c0 160 3 290 6 290 3 0 174 -130
380 -290 l374 -290 0 58 0 58 -317 245 c-175 134 -366 281 -425 327 l-108 83
0 -386z"/>
<path d="M1170 199 c-35 -22 -101 -52 -145 -66 -69 -23 -97 -27 -205 -27 -119
0 -130 1 -232 37 -58 20 -112 37 -119 37 -26 0 15 -28 80 -55 179 -74 384 -72
550 5 87 41 162 90 155 101 -8 14 -14 11 -84 -32z"/>
</g>
</svg>
